HIERARCHY
ROOT Hips
{
	OFFSET 0.00000 0.00000 0.00000
	CHANNELS 6 Xposition Yposition Zposition Yrotation Zrotation Xrotation 
	JOINT Lumbar
	{
		OFFSET 0 0 0
		CHANNELS 3 Zrotation Xrotation Yrotation
		JOINT Neck
		{
			OFFSET 0.00 0.2701 0.00
			CHANNELS 3 Zrotation Xrotation Yrotation
			End Site
			{
				OFFSET 0.00 0.1379 0.00
			}
		}
		JOINT RightShoulder
		{
			OFFSET 0.0119 0.2289 0.1181
			CHANNELS 3 Zrotation Xrotation Yrotation
			JOINT RightElbow
			{
				OFFSET 0.00 -0.1475 0.00
				CHANNELS 2 Zrotation Yrotation
				JOINT RightWrist
				{
					OFFSET 0.00 -0.1605 0.00
					CHANNELS 2 Zrotation Xrotation
					End Site
					{
						OFFSET 0.0040 -0.1068 0.0006
					}
				}
			}
		}
		JOINT LeftShoulder
		{
			OFFSET 0.0119 0.2289 -0.1181
			CHANNELS 3 Zrotation Xrotation Yrotation
			JOINT LeftElbow
			{
				OFFSET 0.00 -0.1475 0.00
				CHANNELS 2 Zrotation Yrotation
				JOINT LeftWrist
				{
					OFFSET 0.00 -0.1605 0.00
					CHANNELS 2 Zrotation Xrotation
					End Site
					{
						OFFSET 0.0040 -0.1068 -0.0006
					}
				}
			}
		}
	}
	JOINT RightHip
	{
		OFFSET 0.0316 -0.0424 0.0458
		CHANNELS 3 Zrotation Xrotation Yrotation
		JOINT RightKnee
		{
			OFFSET 0.00 -0.2438 0.00
			CHANNELS 1 Zrotation
			JOINT RightAnkle
			{
				OFFSET 0.00 -0.2449 0.00
				CHANNELS 3 Zrotation Xrotation Yrotation
				End Site
				{
					OFFSET 0.1237 -0.0542 0.0051
				}
			}
		}
	}
	JOINT LeftHip
	{
		OFFSET 0.0316 -0.0424 -0.0458
		CHANNELS 3 Zrotation Xrotation Yrotation
		JOINT LeftKnee
		{
			OFFSET 0.00 -0.2438 0.00
			CHANNELS 1 Zrotation
			JOINT LeftAnkle
			{
				OFFSET 0.00 -0.2449 0.00
				CHANNELS 3 Zrotation Xrotation Yrotation
				End Site
				{
					OFFSET 0.1237 -0.0542 -0.0051
				}
			}
		}
	}
}
MOTION
Frames: 24
Frame Time: 0.02
0.26549 0.005 0.58877 -564.532 -35.00847 -3.33936 40.74007 1.9782 -0.51355 -2.0861 -3.90907 -2.11994 -60.6131 -61.43398 42.13178 112.93702 129.3199 -60.37082 -8.70858 27.04761 -9.02161 12.3104 134.30118 -93.32889 -54.59715 4.13221 55.18429 -6.58665 -13.17691 -18.0328 -10.35559 -1.53245 -3.17517 47.11083 -0.79378 10.30316 -27.57185 -7.05143 1.40656 2.94836
0.2606 0.00486 0.58659 -564.36997 -35.16757 -3.50303 40.74184 1.97161 -0.96325 -2.21299 -3.3817 -2.11994 -60.58766 -61.38054 42.06962 112.96429 129.15546 -60.27245 -8.67056 26.799 -9.18264 11.98161 134.30134 -93.8894 -54.7204 4.39916 55.17356 -6.28423 -17.79565 -14.40026 -11.82876 4.47412 -0.36683 46.74328 -0.57365 10.29932 -27.80307 -6.9689 1.38382 2.92933
0.25551 0.00458 0.58424 -564.1156 -35.34107 -3.62968 40.78634 1.95901 -1.41175 -2.34701 -2.84853 -2.11994 -60.62239 -61.31744 41.90461 113.02222 129.07244 -60.3353 -8.65485 26.47917 -9.41459 11.62494 134.30122 -93.97767 -54.77224 4.68121 55.08886 -6.1241 -23.76365 -11.00426 -13.58287 12.0609 3.18556 46.37861 -0.38078 10.23626 -28.06491 -6.8855 1.36397 2.9104
0.25049 0.00435 0.58193 -563.90101 -35.50591 -3.76824 40.81424 1.94872 -1.85147 -2.47324 -2.31853 -2.11994 -60.60895 -61.26759 41.81334 113.06426 128.86852 -60.23893 -8.61789 26.20786 -9.59998 11.31053 134.30103 -94.17043 -54.85105 4.93127 55.05206 -5.90549 -28.9615 -7.59064 -15.1529 18.69917 6.29234 46.00799 -0.17615 10.20414 -28.31605 -6.80241 1.34299 2.89184
0.24558 0.00418 0.57977 -563.6929 -35.67902 -3.92638 40.82831 1.93933 -2.33102 -2.61874 -1.78504 -2.11994 -60.67494 -61.18297 41.61944 113.11269 128.99071 -60.47173 -8.6239 25.86595 -9.85012 10.87108 134.30208 -94.84526 -54.95829 5.2877 54.95192 -5.65997 -34.81198 -3.78562 -16.96799 26.31724 9.85587 45.65601 0.03236 10.16469 -28.55313 -6.7197 1.31997 2.871
0.24037 0.00384 0.57725 -563.4506 -35.83862 -4.03547 40.88297 1.92721 -2.72731 -2.72553 -1.25857 -2.11994 -60.59828 -61.16464 41.60331 113.15607 128.48511 -60.09252 -8.55016 25.65481 -9.98024 10.68405 134.29998 -94.40466 -54.98883 5.42778 54.96322 -5.50349 -39.62578 -0.85579 -18.33373 32.26556 12.64313 45.26579 0.22547 10.11933 -28.82696 -6.63599 1.30274 2.85528
0.23445 0.00304 0.5738 -563.13495 -35.95738 -4.01745 41.0288 1.90625 -2.89203 -2.7265 -0.74488 -2.11994 -60.045 -61.36773 42.19524 113.17491 125.95291 -57.6956 -8.21314 25.82641 -9.7663 11.21836 134.29382 -90.91043 -54.80624 4.94537 55.35411 -5.57209 -41.25928 -0.30101 -18.42882 33.22905 13.10761 44.77554 0.38841 10.11637 -29.19472 -6.54987 1.29598 2.8517
0.22823 0.00206 0.56998 -562.78925 -36.06239 -3.95192 41.2164 1.88351 -2.97339 -2.6876 -0.24008 -2.11994 -59.35689 -61.63191 42.95398 113.18838 122.83101 -54.72382 -7.80129 26.13204 -9.42791 12.00432 134.28387 -86.32543 -54.55144 4.24858 55.85297 -5.72319 -41.79735 -0.62133 -18.0559 32.45162 12.76277 44.24602 0.53643 10.10204 -29.59852 -6.46285 1.29578 2.85359
0.2221 0.00115 0.56628 -562.45803 -36.17347 -3.90836 41.39152 1.86332 -3.09396 -2.66537 0.26353 -2.11994 -58.77827 -61.84379 43.57307 113.20657 120.16707 -52.21608 -7.44963 26.37345 -9.14254 12.66424 134.27237 -82.2914 -54.34099 3.66333 56.26547 -5.82747 -42.83677 -0.52754 -17.86916 32.46583 12.7882 43.73028 0.68642 10.06101 -29.9859 -6.37603 1.29607 2.85439
0.21615 0.00029 0.56278 -562.11794 -36.28473 -3.86062 41.53946 1.83496 -3.20843 -2.65023 0.78968 -2.11994 -58.00729 -62.15619 44.45008 113.21626 116.73099 -48.89205 -6.99195 26.6248 -8.87371 13.37377 134.27377 -77.99776 -54.07943 3.01818 56.8237 -5.97554 -43.92849 -0.49598 -17.79741 32.54496 12.83553 43.23076 0.85247 10.14587 -30.37439 -6.28965 1.28252 2.84961
0.20977 -0.00072 0.55876 -561.79308 -36.3935 -3.81238 41.75489 1.82399 -3.31638 -2.60983 1.2664 -2.11994 -57.59269 -62.27726 44.84098 113.24186 114.72811 -47.08651 -6.73232 26.89011 -8.54112 14.03845 134.24852 -74.00478 -53.90816 2.4478 57.11628 -6.05077 -44.6081 -0.55851 -17.37985 32.0402 12.62744 42.68938 0.98603 9.97494 -30.76889 -6.20265 1.29842 2.85738
0.2023 -0.00214 0.55348 -561.49495 -36.48646 -3.76072 42.13244 1.85517 -3.42227 -2.51767 1.61091 -2.11994 -58.29524 -61.82599 43.76052 113.31383 117.12446 -49.99194 -7.07909 27.14555 -8.05175 14.53186 134.14035 -70.99989 -54.00144 2.1263 56.54915 -5.89822 -44.63815 -0.50024 -16.04569 30.47199 11.97874 42.03103 0.99649 9.02419 -31.17076 -6.11014 1.40197 2.90191
0.19441 -0.00369 0.54769 -561.21771 -36.57898 -3.71277 42.57827 1.90496 -3.52559 -2.40014 1.90535 -2.11994 -59.34324 -61.18566 42.20128 113.40174 120.93149 -54.37915 -7.62051 27.41384 -7.50395 14.9688 134.00689 -68.35808 -54.18758 1.88916 55.72734 -5.66963 -44.24962 -0.53334 -14.3915 28.35001 11.08708 41.33387 0.9808 7.8279 -31.57807 -6.01788 1.53367 2.95835
0.1867 -0.00515 0.54209 -560.94649 -36.68052 -3.67249 43.00261 1.95056 -3.63263 -2.28848 2.22156 -2.11994 -60.16571 -60.65081 40.92065 113.48135 123.8923 -57.83343 -8.04495 27.68663 -6.99025 15.42262 133.89238 -65.62356 -54.33479 1.61998 55.09132 -5.47987 -43.89345 -0.63648 -12.93357 26.38694 10.25616 40.66181 1.00274 6.79812 -31.98209 -5.92801 1.64693 3.00692
0.17902 -0.00672 0.53664 -560.60939 -36.74701 -3.5917 43.39068 1.9787 -3.72481 -2.19832 2.54244 -2.11994 -61.26821 -60.03494 39.39144 113.56483 127.68258 -62.34289 -8.58489 27.91975 -6.44161 15.92283 133.74833 -62.54459 -54.47095 1.31703 54.17412 -5.27665 -44.14066 -0.31178 -11.24886 24.7364 9.5975 39.95727 0.91957 5.54842 -32.38791 -5.82716 1.78324 3.06556
0.1712 -0.0081 0.53076 -560.41395 -36.88323 -3.59593 43.86677 2.0469 -3.84987 -2.05913 2.84077 -2.11994 -61.87709 -59.54282 38.25999 113.64462 130.10797 -65.03966 -8.93434 28.23762 -5.95193 16.30904 133.65725 -60.28466 -54.64642 1.10689 53.76711 -5.08032 -43.0781 -0.8728 -9.96165 22.35016 8.54499 39.31119 1.04418 4.68309 -32.79447 -5.74972 1.87944 3.10661
0.16306 -0.00897 0.5238 -560.6132 -37.24072 -3.84161 44.59583 2.22769 -4.05373 -1.78019 3.09768 -2.11994 -60.98827 -59.43198 38.37924 113.70586 128.24818 -62.14842 -8.68549 28.7787 -5.65392 16.39839 133.74123 -60.19381 -54.96624 1.13645 54.94761 -4.93834 -38.22474 -3.98793 -9.89519 17.86367 6.36162 38.84214 1.79373 5.07636 -33.17273 -5.73314 1.84642 3.09052
0.15481 -0.00963 0.51643 -560.95304 -37.66296 -4.17144 45.40554 2.44709 -4.29306 -1.455 3.33187 -2.11994 -59.60069 -59.45266 38.90803 113.76365 125.00033 -57.42512 -8.24307 29.40518 -5.41573 16.37259 133.87536 -60.92014 -55.31236 1.25681 56.62817 -4.80261 -32.12352 -7.96247 -10.23417 12.70183 3.81306 38.43355 2.74539 5.84197 -33.55857 -5.74089 1.77399 3.05724
0.14664 -0.01035 0.50927 -561.22279 -38.03705 -4.45814 46.16117 2.6444 -4.52546 -1.15805 3.57104 -2.11994 -58.47515 -59.41786 39.22523 113.82605 122.50404 -53.68848 -7.90594 29.9972 -5.14054 16.39597 133.9715 -61.28135 -55.60778 1.33408 58.00278 -4.65235 -26.78179 -11.45332 -10.35992 7.99266 1.50359 37.99194 3.57474 6.34394 -33.95754 -5.73983 1.72737 3.03561
0.13833 -0.01121 0.50202 -561.51861 -38.4908 -4.76604 46.9944 2.86102 -4.72093 -0.8295 3.8317 -2.11994 -57.21268 -59.36042 39.63287 113.87639 119.5497 -49.35518 -7.50291 30.57224 -4.90236 16.43223 134.1302 -61.63135 -56.06788 1.42198 59.70039 -4.54788 -20.61732 -15.34092 -10.59482 2.65086 -1.12197 37.56736 4.53021 7.22537 -34.27946 -5.72894 1.64914 2.99855
0.13029 -0.01172 0.49486 -561.79426 -38.79322 -5.04916 47.68221 3.04701 -4.99926 -0.55636 4.04202 -2.11994 -56.11194 -59.38125 39.95622 113.95055 117.19785 -45.80727 -7.18805 31.2017 -4.60495 16.41328 134.17174 -62.19014 -56.19263 1.50809 60.84781 -4.35172 -15.86971 -18.60514 -10.70503 -1.53012 -3.17466 37.12844 5.27331 7.42141 -34.77275 -5.74475 1.62609 2.98897
0.12297 -0.01125 0.48795 -561.97194 -38.66822 -5.24766 47.96533 3.13292 -5.51876 -0.44603 4.12643 -2.11994 -55.58383 -59.60934 39.94426 114.09313 116.87955 -44.90231 -7.16902 31.96758 -4.10475 16.28375 133.87045 -63.16123 -55.36239 1.56823 60.3495 -3.89075 -15.39593 -19.93324 -10.35592 -2.30018 -3.5357 36.58198 5.36335 5.52095 -35.65693 -5.82404 1.77304 3.06307
0.11594 -0.01044 0.48115 -562.12627 -38.38728 -5.41723 48.0955 3.18761 -6.11602 -0.39367 4.1599 -2.11994 -55.23374 -59.90849 39.83674 114.25905 117.20618 -44.84268 -7.244 32.78263 -3.54755 16.09975 133.45135 -64.30647 -54.19784 1.62287 59.28198 -3.33968 -16.38264 -20.6041 -9.87206 -1.88284 -3.30996 36.02927 5.23585 2.94079 -36.72671 -5.92995 1.97537 3.16475
0.10883 -0.0098 0.47435 -562.29581 -38.17386 -5.59745 48.285 3.26054 -6.66454 -0.31567 4.2119 -2.11994 -54.79713 -60.16043 39.7762 114.41346 117.20635 -44.36654 -7.27107 33.5721 -3.03312 15.93273 133.09047 -65.3461 -53.20023 1.67874 58.47945 -2.83673 -16.66646 -21.57886 -9.46178 -2.03302 -3.36518 35.51432 5.21955 0.74621 -37.76633 -6.02674 2.14676 3.25129
